<svg width="96" height="96" viewBox="0 0 96 96" fill="none" xmlns="http://www.w3.org/2000/svg">
<path d="M72.6274 8.62744C73.732 8.62744 74.6274 9.52287 74.6274 10.6274L74.6274 22.6274C74.6274 23.732 73.732 24.6274 72.6274 24.6274L22.6274 24.6274C21.5229 24.6274 20.6274 23.732 20.6274 22.6274L20.6274 10.6274C20.6274 9.52287 21.5229 8.62744 22.6274 8.62744L72.6274 8.62744Z" fill="#C52229"/>
<path fill-rule="evenodd" clip-rule="evenodd" d="M76.6274 10.6274L76.6274 22.6274C76.6274 24.8366 74.8366 26.6274 72.6274 26.6274L22.6274 26.6274C20.4183 26.6274 18.6274 24.8366 18.6274 22.6274L18.6274 10.6274C18.6274 8.4183 20.4183 6.62744 22.6274 6.62744L72.6274 6.62744C74.8366 6.62744 76.6274 8.4183 76.6274 10.6274ZM74.6274 10.6274C74.6274 9.52287 73.732 8.62744 72.6274 8.62744L22.6274 8.62744C21.5229 8.62744 20.6274 9.52287 20.6274 10.6274L20.6274 22.6274C20.6274 23.732 21.5229 24.6274 22.6274 24.6274L72.6274 24.6274C73.732 24.6274 74.6274 23.732 74.6274 22.6274L74.6274 10.6274Z" fill="#9B0F15"/>
<path fill-rule="evenodd" clip-rule="evenodd" d="M22.4446 9.62744C22.4446 9.07516 22.8923 8.62744 23.4446 8.62744H72.3773C72.9296 8.62744 73.3773 9.07516 73.3773 9.62744C73.3773 10.1797 72.9296 10.6274 72.3773 10.6274H23.4446C22.8923 10.6274 22.4446 10.1797 22.4446 9.62744Z" fill="#DF3840"/>
<path fill-rule="evenodd" clip-rule="evenodd" d="M22.0647 15.4399C22.0647 14.8877 22.5124 14.4399 23.0647 14.4399H71.9974C72.5497 14.4399 72.9974 14.8877 72.9974 15.4399C72.9974 15.9922 72.5497 16.4399 71.9974 16.4399H23.0647C22.5124 16.4399 22.0647 15.9922 22.0647 15.4399Z" fill="#AF1B22"/>
<path fill-rule="evenodd" clip-rule="evenodd" d="M22.0647 11.7524C22.0647 11.2002 22.5124 10.7524 23.0647 10.7524H71.9974C72.5497 10.7524 72.9974 11.2002 72.9974 11.7524C72.9974 12.3047 72.5497 12.7524 71.9974 12.7524H23.0647C22.5124 12.7524 22.0647 12.3047 22.0647 11.7524Z" fill="#AF1B22"/>
<path fill-rule="evenodd" clip-rule="evenodd" d="M22.0647 19.0649C22.0647 18.5127 22.5124 18.0649 23.0647 18.0649H71.9974C72.5497 18.0649 72.9974 18.5127 72.9974 19.0649C72.9974 19.6172 72.5497 20.0649 71.9974 20.0649H23.0647C22.5124 20.0649 22.0647 19.6172 22.0647 19.0649Z" fill="#AF1B22"/>
<path fill-rule="evenodd" clip-rule="evenodd" d="M22.4446 22.3774C22.4446 21.8252 22.8923 21.3774 23.4446 21.3774H72.3773C72.9296 21.3774 73.3773 21.8252 73.3773 22.3774C73.3773 22.9297 72.9296 23.3774 72.3773 23.3774H23.4446C22.8923 23.3774 22.4446 22.9297 22.4446 22.3774Z" fill="#AF1B22"/>
<path d="M23.7279 9.41421C22.9469 8.63316 21.6806 8.63317 20.8995 9.41421L12.4142 17.8995C11.6332 18.6805 11.6332 19.9469 12.4142 20.7279L46.5269 54.8406C47.308 55.6217 48.5743 55.6217 49.3554 54.8406L57.8406 46.3553C58.6217 45.5743 58.6217 44.308 57.8406 43.5269L23.7279 9.41421Z" fill="#F1333B"/>
<path fill-rule="evenodd" clip-rule="evenodd" d="M19.4853 8.00006L11 16.4853C9.43792 18.0474 9.43792 20.5801 11 22.1422L45.1127 56.2549C46.6748 57.817 49.2075 57.817 50.7696 56.2549L59.2548 47.7696C60.8169 46.2075 60.8169 43.6749 59.2548 42.1128L25.1421 8.00006C23.58 6.43796 21.0474 6.43796 19.4853 8.00006ZM20.8995 9.41427C21.6806 8.63322 22.9469 8.63322 23.7279 9.41427L57.8406 43.527C58.6217 44.308 58.6217 45.5744 57.8406 46.3554L49.3554 54.8407C48.5743 55.6217 47.308 55.6217 46.5269 54.8407L12.4142 20.728C11.6332 19.9469 11.6332 18.6806 12.4142 17.8996L20.8995 9.41427Z" fill="#9B0F15"/>
<path d="M71.5272 9.45328C72.305 8.6539 73.5863 8.64511 74.3749 9.43375L82.8599 17.9188C83.6334 18.6922 83.642 19.9436 82.8792 20.7277L49.7277 54.8015C48.9499 55.6009 47.6686 55.6097 46.88 54.8211L38.395 46.3361C37.6215 45.5626 37.6129 44.3112 38.3757 43.5272L71.5272 9.45328Z" fill="#F1333B"/>
<path fill-rule="evenodd" clip-rule="evenodd" d="M75.7891 8.01959L84.2741 16.5046C85.8211 18.0516 85.8383 20.5544 84.3127 22.1224L51.1612 56.1963C49.6057 57.795 47.0431 57.8126 45.4658 56.2354L36.9808 47.7503C35.4338 46.2034 35.4166 43.7006 36.9422 42.1326L70.0937 8.05867C71.6492 6.4599 74.2119 6.44232 75.7891 8.01959ZM74.3749 9.43381C73.5863 8.64517 72.305 8.65396 71.5272 9.45334L38.3757 43.5272C37.6129 44.3113 37.6215 45.5626 38.395 46.3361L46.88 54.8211C47.6686 55.6098 48.9499 55.601 49.7277 54.8016L82.8792 20.7277C83.642 19.9437 83.6334 18.6923 82.8599 17.9188L74.3749 9.43381Z" fill="#9B0F15"/>
<path fill-rule="evenodd" clip-rule="evenodd" d="M73.1436 10.2921C73.5359 10.6809 73.5388 11.314 73.15 11.7063L52.7125 32.3313C52.3238 32.7236 51.6906 32.7265 51.2983 32.3378C50.906 31.949 50.9031 31.3159 51.2919 30.9236L71.7294 10.2986C72.1181 9.90627 72.7513 9.90338 73.1436 10.2921Z" fill="#FE666D"/>
<path fill-rule="evenodd" clip-rule="evenodd" d="M12.6701 18.6703C13.0606 18.2798 13.6938 18.2798 14.0843 18.6703L27.0843 31.6703C27.4748 32.0609 27.4748 32.694 27.0843 33.0845C26.6938 33.4751 26.0606 33.4751 25.6701 33.0845L12.6701 20.0845C12.2796 19.694 12.2796 19.0609 12.6701 18.6703Z" fill="#FE666D"/>
<path d="M77.2114 16.0269C76.811 16.4273 76.1697 16.4352 75.779 16.0445C75.3884 15.6539 75.3963 15.0126 75.7967 14.6122C76.1971 14.2118 76.8384 14.2039 77.229 14.5945C77.6197 14.9852 77.6118 15.6264 77.2114 16.0269Z" fill="#DB1B24"/>
<path d="M74.1699 18.5023C73.6718 19.0004 72.8741 19.0102 72.3882 18.5243C71.9023 18.0384 71.9121 17.2407 72.4102 16.7427C72.9082 16.2446 73.7059 16.2347 74.1918 16.7207C74.6778 17.2066 74.6679 18.0043 74.1699 18.5023Z" fill="#DB1B24"/>
<path d="M77.4104 19.2849C77.1613 19.5339 76.7625 19.5388 76.5195 19.2959C76.2766 19.0529 76.2815 18.6541 76.5305 18.405C76.7796 18.156 77.1784 18.1511 77.4214 18.394C77.6643 18.637 77.6594 19.0358 77.4104 19.2849Z" fill="#DB1B24"/>
<path d="M70.2068 27.7331C69.9577 27.9821 69.5589 27.9871 69.3159 27.7441C69.073 27.5011 69.0779 27.1023 69.3269 26.8533C69.5759 26.6042 69.9748 26.5993 70.2178 26.8423C70.4607 27.0852 70.4558 27.4841 70.2068 27.7331Z" fill="#DB1B24"/>
<path d="M73.823 21.9926C73.5739 22.2417 73.1751 22.2466 72.9321 22.0036C72.6892 21.7607 72.6941 21.3618 72.9431 21.1128C73.1922 20.8637 73.591 20.8588 73.834 21.1018C74.0769 21.3447 74.072 21.7436 73.823 21.9926Z" fill="#DB1B24"/>
<path d="M70.1958 31.1767C69.9467 31.4257 69.5479 31.4307 69.3049 31.1877C69.062 30.9447 69.0669 30.5459 69.3159 30.2969C69.565 30.0478 69.9638 30.0429 70.2068 30.2859C70.4497 30.5288 70.4448 30.9277 70.1958 31.1767Z" fill="#DB1B24"/>
<path d="M71.1086 21.2324C70.8596 21.4814 70.4607 21.4863 70.2178 21.2434C69.9748 21.0004 69.9797 20.6016 70.2288 20.3525C70.4778 20.1035 70.8766 20.0986 71.1196 20.3415C71.3626 20.5845 71.3576 20.9833 71.1086 21.2324Z" fill="#DB1B24"/>
<path d="M73.1377 28.3574C72.8886 28.6064 72.4898 28.6113 72.2468 28.3684C72.0039 28.1254 72.0088 27.7266 72.2578 27.4775C72.5069 27.2285 72.9057 27.2236 73.1487 27.4665C73.3916 27.7095 73.3867 28.1083 73.1377 28.3574Z" fill="#DB1B24"/>
<path d="M80.4297 17.7065C80.1806 17.9555 79.7818 17.9604 79.5388 17.7175C79.2959 17.4745 79.3008 17.0757 79.5498 16.8266C79.7989 16.5776 80.1977 16.5727 80.4407 16.8157C80.6836 17.0586 80.6787 17.4575 80.4297 17.7065Z" fill="#DB1B24"/>
<path d="M77.1314 22.9316C76.7261 23.3369 76.077 23.3449 75.6816 22.9495C75.2862 22.5541 75.2942 21.905 75.6995 21.4997C76.1048 21.0944 76.7539 21.0864 77.1493 21.4818C77.5447 21.8772 77.5367 22.5263 77.1314 22.9316Z" fill="#DB1B24"/>
<path d="M80.9949 20.5C80.5896 20.9053 79.9405 20.9133 79.5451 20.5179C79.1497 20.1225 79.1577 19.4734 79.563 19.0681C79.9683 18.6628 80.6174 18.6548 81.0128 19.0502C81.4082 19.4456 81.4002 20.0947 80.9949 20.5Z" fill="#DB1B24"/>
<path d="M73.1683 25.5112C72.763 25.9165 72.1139 25.9245 71.7185 25.5291C71.3231 25.1337 71.3311 24.4846 71.7364 24.0793C72.1417 23.674 72.7908 23.666 73.1862 24.0614C73.5816 24.4568 73.5736 25.1059 73.1683 25.5112Z" fill="#DB1B24"/>
<path d="M75.9782 25.9514C75.7292 26.2004 75.3304 26.2053 75.0874 25.9624C74.8444 25.7194 74.8494 25.3206 75.0984 25.0715C75.3474 24.8225 75.7463 24.8176 75.9892 25.0605C76.2322 25.3035 76.2273 25.7023 75.9782 25.9514Z" fill="#DB1B24"/>
<path d="M75 61C75 75.9117 62.9117 88 48 88C33.0883 88 21 75.9117 21 61C21 46.0883 33.0883 34 48 34C62.9117 34 75 46.0883 75 61Z" fill="#FFBB0D"/>
<path fill-rule="evenodd" clip-rule="evenodd" d="M77 61C77 77.0163 64.0163 90 48 90C31.9837 90 19 77.0163 19 61C19 44.9837 31.9837 32 48 32C64.0163 32 77 44.9837 77 61ZM48 88C62.9117 88 75 75.9117 75 61C75 46.0883 62.9117 34 48 34C33.0883 34 21 46.0883 21 61C21 75.9117 33.0883 88 48 88Z" fill="#E89B05"/>
<path fill-rule="evenodd" clip-rule="evenodd" d="M23 62C22.4477 62 22 61.5523 22 61C22 46.6406 33.6406 35 48 35C48.5523 35 49 35.4477 49 36C49 36.5523 48.5523 37 48 37C34.7452 37 24 47.7452 24 61C24 61.5523 23.5523 62 23 62Z" fill="#E8AA0A"/>
<path fill-rule="evenodd" clip-rule="evenodd" d="M73 60C73.5523 60 74 60.4477 74 61C74 75.3594 62.3594 87 48 87C47.4477 87 47 86.5523 47 86C47 85.4477 47.4477 85 48 85C61.2548 85 72 74.2548 72 61C72 60.4477 72.4477 60 73 60Z" fill="#E8AA0A"/>
<path d="M68 61C68 72.0457 59.0457 81 48 81C36.9543 81 28 72.0457 28 61C28 49.9543 36.9543 41 48 41C59.0457 41 68 49.9543 68 61Z" fill="#FFDD28"/>
<path fill-rule="evenodd" clip-rule="evenodd" d="M70 61C70 73.1503 60.1503 83 48 83C35.8497 83 26 73.1503 26 61C26 48.8497 35.8497 39 48 39C60.1503 39 70 48.8497 70 61ZM48 81C59.0457 81 68 72.0457 68 61C68 49.9543 59.0457 41 48 41C36.9543 41 28 49.9543 28 61C28 72.0457 36.9543 81 48 81Z" fill="#E89B05"/>
<path fill-rule="evenodd" clip-rule="evenodd" d="M48 78C57.3888 78 65 70.3888 65 61C65 60.4477 65.4477 60 66 60C66.5523 60 67 60.4477 67 61C67 71.4934 58.4934 80 48 80C47.4477 80 47 79.5523 47 79C47 78.4477 47.4477 78 48 78Z" fill="#ECC704"/>
<path fill-rule="evenodd" clip-rule="evenodd" d="M48 44C38.6112 44 31 51.6112 31 61C31 61.5523 30.5523 62 30 62C29.4477 62 29 61.5523 29 61C29 50.5066 37.5066 42 48 42C48.5523 42 49 42.4477 49 43C49 43.5523 48.5523 44 48 44Z" fill="#FFEF9C"/>
<path d="M37 58.4L43.875 57L45.9375 53.5L48 50L52.125 57L59 58.4L53.5 64L54.875 71L48 67.5L41.125 71L42.5 64L37 58.4Z" fill="#FFEF9C"/>
<path fill-rule="evenodd" clip-rule="evenodd" d="M43.875 57L48 50L52.125 57L59 58.4L53.5 64L54.875 71L48 67.5L41.125 71L42.5 64L37 58.4L43.875 57ZM40.3343 64.6491L35.5732 59.8014C35.0595 59.2784 34.8731 58.5162 35.0875 57.8152C35.3018 57.1141 35.8826 56.5865 36.601 56.4402L42.6038 55.2178L46.277 48.9846C46.6365 48.3745 47.2919 48 48 48C48.7082 48 49.3636 48.3745 49.7231 48.9846L53.3963 55.2178L59.3991 56.4402C60.1175 56.5865 60.6982 57.1141 60.9126 57.8152C61.127 58.5162 60.9406 59.2784 60.4269 59.8014L55.6658 64.6491L56.8375 70.6145C56.985 71.3654 56.6911 72.1346 56.0805 72.5959C55.4699 73.0571 54.6496 73.1295 53.9677 72.7823L48 69.7443L42.0324 72.7823C41.3505 73.1295 40.5302 73.0571 39.9196 72.5959C39.309 72.1346 39.0151 71.3654 39.1626 70.6145L40.3343 64.6491Z" fill="#E89B05"/>
</svg>
