<svg width="72" height="84" viewBox="0 0 72 84" fill="none" xmlns="http://www.w3.org/2000/svg">
<path d="M25.5826 2.97101C25.2212 2.3686 24.5701 2 23.8676 2H4.53238C2.97779 2 2.01756 3.69594 2.81739 5.02899L24.4174 41.029C24.7788 41.6314 25.4298 42 26.1324 42H45.4676C47.0222 42 47.9824 40.3041 47.1826 38.971L25.5826 2.97101Z" fill="#C52229"/>
<path fill-rule="evenodd" clip-rule="evenodd" d="M23.8675 0H4.53222C1.42304 0 -0.497414 3.39189 1.10225 6.05798L22.7022 42.058C23.4251 43.2628 24.7272 44 26.1322 44H45.4675C48.5766 44 50.4971 40.6081 48.8974 37.942L27.2974 1.94202C26.5745 0.737198 25.2725 0 23.8675 0ZM23.8675 2C24.57 2 25.221 2.3686 25.5824 2.97101L47.1824 38.971C47.9823 40.3041 47.022 42 45.4675 42H26.1322C25.4297 42 24.7787 41.6314 24.4172 41.029L2.81723 5.02899C2.0174 3.69594 2.97763 2 4.53222 2H23.8675Z" fill="#9B0F15"/>
<path d="M46.4174 2.97101C46.7788 2.3686 47.4299 2 48.1324 2H67.4676C69.0222 2 69.9824 3.69594 69.1826 5.02899L47.5826 41.029C47.2212 41.6314 46.5702 42 45.8676 42H26.5324C24.9778 42 24.0176 40.3041 24.8174 38.971L46.4174 2.97101Z" fill="#F1333B"/>
<path fill-rule="evenodd" clip-rule="evenodd" d="M48.1323 0H67.4675C70.5767 0 72.4972 3.39189 70.8975 6.05798L49.2975 42.058C48.5746 43.2628 47.2726 44 45.8675 44H26.5323C23.4231 44 21.5027 40.6081 23.1023 37.942L44.7023 1.94202C45.4252 0.737198 46.7272 0 48.1323 0ZM48.1323 2C47.4298 2 46.7788 2.3686 46.4173 2.97101L24.8173 38.971C24.0175 40.3041 24.9777 42 26.5323 42H45.8675C46.5701 42 47.2211 41.6314 47.5825 41.029L69.1825 5.02899C69.9824 3.69594 69.0221 2 67.4675 2H48.1323Z" fill="#9B0F15"/>
<path fill-rule="evenodd" clip-rule="evenodd" d="M48.5021 3.13513C48.9797 3.41245 49.142 4.02445 48.8647 4.50206L39.8647 20.0021C39.5874 20.4797 38.9754 20.642 38.4978 20.3647C38.0202 20.0874 37.8578 19.4754 38.1351 18.9978L47.1351 3.49779C47.4125 3.02018 48.0244 2.85781 48.5021 3.13513Z" fill="#FE666D"/>
<path fill-rule="evenodd" clip-rule="evenodd" d="M4.49794 3.13513C4.02033 3.41245 3.85797 4.02445 4.13529 4.50206L13.1353 20.0021C13.4126 20.4797 14.0246 20.642 14.5022 20.3647C14.9798 20.0874 15.1422 19.4754 14.8649 18.9978L5.86487 3.49779C5.58755 3.02018 4.97555 2.85781 4.49794 3.13513Z" fill="#DF3840"/>
<path d="M23.5 5.28125C23.5 5.98886 22.9404 6.5625 22.25 6.5625C21.5596 6.5625 21 5.98886 21 5.28125C21 4.57364 21.5596 4 22.25 4C22.9404 4 23.5 4.57364 23.5 5.28125Z" fill="#AA161D"/>
<path d="M19.1098 5.59375C19.1098 6.47395 18.4136 7.1875 17.5549 7.1875C16.6961 7.1875 16 6.47395 16 5.59375C16 4.71355 16.6961 4 17.5549 4C18.4136 4 19.1098 4.71355 19.1098 5.59375Z" fill="#AA161D"/>
<path d="M22.9999 10.1562C22.9999 11.0365 22.3038 11.75 21.445 11.75C20.5863 11.75 19.8901 11.0365 19.8901 10.1562C19.8901 9.27605 20.5863 8.5625 21.445 8.5625C22.3038 8.5625 22.9999 9.27605 22.9999 10.1562Z" fill="#AA161D"/>
<path d="M26.5549 7.98438C26.5549 8.42448 26.2068 8.78125 25.7774 8.78125C25.3481 8.78125 25 8.42448 25 7.98438C25 7.54427 25.3481 7.1875 25.7774 7.1875C26.2068 7.1875 26.5549 7.54427 26.5549 7.98438Z" fill="#AA161D"/>
<path d="M18.3322 9.35938C18.3322 9.79948 17.9842 10.1562 17.5548 10.1562C17.1254 10.1562 16.7773 9.79948 16.7773 9.35938C16.7773 8.91927 17.1254 8.5625 17.5548 8.5625C17.9842 8.5625 18.3322 8.91927 18.3322 9.35938Z" fill="#AA161D"/>
<path d="M13.9999 4.48438C13.9999 4.92448 13.6519 5.28125 13.2225 5.28125C12.7931 5.28125 12.4451 4.92448 12.4451 4.48438C12.4451 4.04427 12.7931 3.6875 13.2225 3.6875C13.6519 3.6875 13.9999 4.04427 13.9999 4.48438Z" fill="#AA161D"/>
<path d="M25.7773 13.5469C25.7773 13.987 25.4292 14.3438 24.9999 14.3438C24.5705 14.3438 24.2224 13.987 24.2224 13.5469C24.2224 13.1068 24.5705 12.75 24.9999 12.75C25.4292 12.75 25.7773 13.1068 25.7773 13.5469Z" fill="#AA161D"/>
<path d="M21.7773 14.3438C21.7773 14.7839 21.4292 15.1406 20.9999 15.1406C20.5705 15.1406 20.2224 14.7839 20.2224 14.3438C20.2224 13.9036 20.5705 13.5469 20.9999 13.5469C21.4292 13.5469 21.7773 13.9036 21.7773 14.3438Z" fill="#AA161D"/>
<path d="M29.5305 11.4531C29.5305 12.1694 28.964 12.75 28.2652 12.75C27.5665 12.75 27 12.1694 27 11.4531C27 10.7369 27.5665 10.1562 28.2652 10.1562C28.964 10.1562 29.5305 10.7369 29.5305 11.4531Z" fill="#AA161D"/>
<path d="M31.1799 15.1406C31.1799 15.5807 30.8318 15.9375 30.4024 15.9375C29.9731 15.9375 29.625 15.5807 29.625 15.1406C29.625 14.7005 29.9731 14.3438 30.4024 14.3438C30.8318 14.3438 31.1799 14.7005 31.1799 15.1406Z" fill="#AA161D"/>
<path d="M63 55C63 69.9117 50.9117 82 36 82C21.0883 82 9 69.9117 9 55C9 40.0883 21.0883 28 36 28C50.9117 28 63 40.0883 63 55Z" fill="#FFBB0D"/>
<path fill-rule="evenodd" clip-rule="evenodd" d="M65 55C65 71.0163 52.0163 84 36 84C19.9837 84 7 71.0163 7 55C7 38.9837 19.9837 26 36 26C52.0163 26 65 38.9837 65 55ZM36 82C50.9117 82 63 69.9117 63 55C63 40.0883 50.9117 28 36 28C21.0883 28 9 40.0883 9 55C9 69.9117 21.0883 82 36 82Z" fill="#E89B05"/>
<path fill-rule="evenodd" clip-rule="evenodd" d="M11 56C10.4477 56 10 55.5523 10 55C10 40.6406 21.6406 29 36 29C36.5523 29 37 29.4477 37 30C37 30.5523 36.5523 31 36 31C22.7452 31 12 41.7452 12 55C12 55.5523 11.5523 56 11 56Z" fill="#E8AA0A"/>
<path fill-rule="evenodd" clip-rule="evenodd" d="M61 54C61.5523 54 62 54.4477 62 55C62 69.3594 50.3594 81 36 81C35.4477 81 35 80.5523 35 80C35 79.4477 35.4477 79 36 79C49.2548 79 60 68.2548 60 55C60 54.4477 60.4477 54 61 54Z" fill="#E8AA0A"/>
<path d="M56 55C56 66.0457 47.0457 75 36 75C24.9543 75 16 66.0457 16 55C16 43.9543 24.9543 35 36 35C47.0457 35 56 43.9543 56 55Z" fill="#FFDD28"/>
<path fill-rule="evenodd" clip-rule="evenodd" d="M58 55C58 67.1503 48.1503 77 36 77C23.8497 77 14 67.1503 14 55C14 42.8497 23.8497 33 36 33C48.1503 33 58 42.8497 58 55ZM36 75C47.0457 75 56 66.0457 56 55C56 43.9543 47.0457 35 36 35C24.9543 35 16 43.9543 16 55C16 66.0457 24.9543 75 36 75Z" fill="#E89B05"/>
<path fill-rule="evenodd" clip-rule="evenodd" d="M36 72C45.3888 72 53 64.3888 53 55C53 54.4477 53.4477 54 54 54C54.5523 54 55 54.4477 55 55C55 65.4934 46.4934 74 36 74C35.4477 74 35 73.5523 35 73C35 72.4477 35.4477 72 36 72Z" fill="#ECC704"/>
<path fill-rule="evenodd" clip-rule="evenodd" d="M36 38C26.6112 38 19 45.6112 19 55C19 55.5523 18.5523 56 18 56C17.4477 56 17 55.5523 17 55C17 44.5066 25.5066 36 36 36C36.5523 36 37 36.4477 37 37C37 37.5523 36.5523 38 36 38Z" fill="#FFEF9C"/>
</svg>
